# xmcd
#
# Track frame offsets:
#	150
#	22207
#	40351
#	62001
#	86655
#	103800
#	124775
#	141050
#	167643
#	188780
#	231048
#	250856
#	265287
#	292838
#	310346
#
# Disc length: 4789 seconds
#
# Revision: 4
# Processed by: cddbd v1.5.2PL0 Copyright (c) Steve Scherf et al.
# Submitted via: EZCDAudioConverter 6.0.0.1
#
DISCID=d512b30f
DTITLE=Various Artist - Akella Presents - Modern Electric Blues - vol.15  CD1 New!
DYEAR=2013
DGENRE=Blues
TTITLE0=COLIN JAMES - Far Away Like A Radio
TTITLE1=ZED MITCHELL - Cadillac
TTITLE2=JAMES SOLBERG - Let The Teardrops Fall
TTITLE3=ERIC BURDON - Highway 62
TTITLE4=BLEU JACKSON - What Love‘s About
TTITLE5=BLUES COMPANY - Run Your Finger Through My Hair
TTITLE6=JOHN CAMPBELLJOHN - Epiphony
TTITLE7=TOSCHO - Oh Lord
TTITLE8=GIANFRANCO SEGATTO - It's A Blue Sky Day
TTITLE9=RICK DERRINGER - Something Inside of Me
TTITLE10=The CATE BROTHERS - Yield Not To Temptation
TTITLE11=BILLY D and The HOODOOS - Somewhere In The Middle Of The Blues
TTITLE12=ZYDECO PLAYBOYS - Voodoo in Bayon
TTITLE13=J.J.CALE and ERIC CLAPTON - Last Will And Testament
TTITLE14=KRIS POHLMANN BAND - Heavy On My Soul
EXTD=
EXTT0=
EXTT1=
EXTT2=
EXTT3=
EXTT4=
EXTT5=
EXTT6=
EXTT7=
EXTT8=
EXTT9=
EXTT10=
EXTT11=
EXTT12=
EXTT13=
EXTT14=
PLAYORDER=
